PathFileType	4	(X/Y/Z)	s06c0401.trc
DataRate	CameraRate	NumFrames	NumMarkers	Units	OrigDataRate	OrigDataStartFrame	OrigNumFrames
200	200	4	48	mm	200	500	2000
Frame#	Time	racr			lacr			c7			jug			rlel			rdr			llel			ldr			s2			lic			ric			lasi			rasi			rpsi			lpsi			rgt			lgt			rth1			rth2			rth3			rth4			rlfc			rmfc			rsh1			rsh2			rsh3			rsh4			rlmal			rcal			rtoe			rmt5			lth1			lth2			lth4			lth3			llfc			lmfc			llmal			lcal			lmt5			lsh1			lsh2			lsh3			lsh4			ltoe			SBIKE			LBIKE			RBIKE			
		X1	Y1	Z1	X2	Y2	Z2	X3	Y3	Z3	X4	Y4	Z4	X5	Y5	Z5	X6	Y6	Z6	X7	Y7	Z7	X8	Y8	Z8	X9	Y9	Z9	X10	Y10	Z10	X11	Y11	Z11	X12	Y12	Z12	X13	Y13	Z13	X14	Y14	Z14	X15	Y15	Z15	X16	Y16	Z16	X17	Y17	Z17	X18	Y18	Z18	X19	Y19	Z19	X20	Y20	Z20	X21	Y21	Z21	X22	Y22	Z22	X23	Y23	Z23	X24	Y24	Z24	X25	Y25	Z25	X26	Y26	Z26	X27	Y27	Z27	X28	Y28	Z28	X29	Y29	Z29	X30	Y30	Z30	X31	Y31	Z31	X32	Y32	Z32	X33	Y33	Z33	X34	Y34	Z34	X35	Y35	Z35	X36	Y36	Z36	X37	Y37	Z37	X38	Y38	Z38	X39	Y39	Z39	X40	Y40	Z40	X41	Y41	Z41	X42	Y42	Z42	X43	Y43	Z43	X44	Y44	Z44	X45	Y45	Z45	X46	Y46	Z46	X47	Y47	Z47	X48	Y48	Z48	
500	2.5000	753.492812	1152.948442	-43.392396	742.629322	1131.673494	-375.802424	794.547655	1252.847798	-207.588910	735.292594	1080.820927	-201.838439	556.943852	1039.850853	102.756147	665.919337	936.173752	-43.525715	515.108689	1043.422068	-511.478341	660.450501	929.131580	-417.798302	221.986532	1208.829640	-218.225840	373.375495	1129.592778	-388.267682	353.124490	1166.593733	-56.562474	378.636378	1075.666986	-350.526023	379.316640	1117.259124	-89.667111	267.313287	1246.270471	-197.711901	263.918609	1232.816711	-255.541445	334.849556	1114.229195	-21.592660	310.757776	1060.446532	-412.790935	426.617510	1029.518345	-23.809222	508.563283	987.300416	-37.985251	549.775271	910.468454	-40.020139	526.703287	1012.769105	-59.241429	596.852899	830.523350	-71.434370	576.221117	814.906307	-186.891229	508.675503	746.472228	-44.340979	451.183602	683.129089	-60.312621	369.640140	650.531206	-56.357916	464.244406	666.444319	-96.163316	290.259927	606.522317	-57.959493	218.915694	619.314764	-103.191281	413.721355	424.082072	-110.925190	330.946446	473.868256	-38.257491	289.592089	933.834393	-432.036797	315.289174	850.629869	-436.586969	352.731959	851.706429	-434.513684	296.514617	763.469076	-428.150985	284.449371	644.581916	-409.363803	306.628673	620.692522	-294.075381	134.506700	307.283960	-383.886667	77.774927	333.492363	-334.220116	165.402211	156.380778	-409.186008	237.593069	545.964569	-427.072999	226.551362	461.468095	-409.025618	173.376666	392.062694	-405.070184	257.693009	452.950679	-386.626415	225.095067	92.758631	-351.009020	-204.490375	868.976914	-220.066555	-50.476021	80.651461	-420.050075	-50.479082	80.391779	-22.714636	
501	2.5050	753.796673	1151.178338	-42.595796	743.195058	1130.215747	-374.605468	795.328471	1251.701783	-206.347955	732.919932	1078.452009	-201.367079	557.810581	1039.101898	104.301284	665.735536	936.357621	-43.457584	515.721862	1043.499512	-511.875718	660.856937	928.790568	-418.603912	223.441901	1212.269540	-218.016827	374.045479	1131.125859	-388.220369	348.498881	1168.324043	-61.075194	378.587263	1077.404120	-350.696469	372.329072	1117.845745	-94.240298	268.952304	1249.548756	-197.833667	265.393516	1235.703853	-255.595133	335.114862	1118.078744	-22.024619	310.914680	1063.069574	-412.507336	424.058308	1032.333432	-22.481364	507.577647	988.999736	-37.194315	547.636838	911.412854	-38.865902	525.882723	1013.935324	-58.967209	594.766945	830.949676	-69.446457	574.056394	814.518397	-185.249177	506.711148	745.516788	-42.435044	450.893442	680.777485	-58.458493	370.144359	646.468151	-55.086163	464.882632	663.980642	-94.020433	292.184239	599.553068	-57.090660	219.939484	609.401181	-102.132846	423.606272	423.403273	-110.951444	338.615241	468.953597	-37.779754	291.799586	936.000545	-431.177309	319.250451	853.344581	-435.439876	356.629872	855.116308	-432.812659	302.111920	765.812171	-427.338638	289.552106	646.663832	-407.794988	309.830203	623.603891	-292.158907	127.864214	313.958284	-382.172778	71.349147	340.991850	-333.293462	156.150418	162.951239	-408.443758	241.015872	548.863788	-425.872943	226.580384	465.176419	-406.737334	170.942699	397.656558	-403.313451	256.803131	455.767208	-383.466351	214.888204	97.924800	-350.997784	-204.324536	869.166538	-219.677181	-50.441928	80.852361	-419.975096	-50.361656	80.329784	-22.689413	
502	2.5100	754.011232	1149.557372	-41.991678	743.752941	1128.870564	-373.608232	796.084174	1250.630305	-205.537828	730.235997	1076.408980	-200.556354	558.749039	1038.673640	105.658969	665.520512	936.699537	-43.321788	516.411368	1043.602594	-512.450395	661.214099	928.314524	-419.115806	224.850694	1215.344568	-217.535908	374.753031	1132.504828	-388.202405	348.913866	1171.813679	-60.955678	378.525871	1078.933410	-350.922009	372.981360	1121.261660	-93.835803	270.694036	1252.591963	-198.118275	266.861388	1238.353419	-255.533009	334.911813	1121.488588	-21.972014	311.043958	1065.350393	-412.324262	422.970071	1033.525847	-22.430916	505.314956	989.644577	-36.294315	545.140868	911.761760	-37.519760	524.470626	1014.130404	-58.261859	592.246535	829.804910	-67.480944	571.226508	812.468464	-183.018872	504.172360	743.121484	-40.427011	449.694207	676.505117	-57.218660	369.829301	641.361893	-53.594531	464.911935	660.256371	-91.857284	293.735184	591.454730	-56.304590	220.700789	598.265025	-101.237980	432.894066	422.140805	-110.896820	346.076474	463.208177	-37.244057	294.639653	937.901553	-430.135105	323.907878	855.944148	-433.934972	361.217962	858.507759	-430.667238	308.513157	767.976807	-426.348098	295.492010	648.431373	-406.123952	313.270282	626.242414	-290.261942	121.824147	321.436951	-380.586973	65.223454	348.609586	-332.098124	147.647080	169.630861	-407.867151	245.320640	551.631144	-424.385425	227.287505	468.854925	-404.390224	169.093544	403.338451	-401.413077	256.341595	458.699313	-379.974320	205.364212	103.618103	-350.832436	-204.169233	869.310794	-219.265980	-50.413622	81.044499	-419.889384	-50.325366	80.428537	-22.561582	
503	2.5150	754.390981	1148.129433	-41.396043	744.394697	1127.709866	-372.844106	796.838515	1249.683317	-204.765312	728.045706	1075.206397	-198.763928	559.501502	1038.561613	106.833869	665.253577	937.151037	-43.289914	517.025081	1043.766082	-513.085982	661.368639	928.043807	-419.769326	226.294594	1218.140587	-217.299425	375.356860	1133.853607	-388.105383	351.685150	1174.467603	-58.104087	378.431577	1080.155011	-351.059739	376.697196	1124.160692	-90.653642	272.244524	1255.087618	-198.302840	268.342259	1240.796639	-255.641227	334.617547	1124.190727	-21.866430	311.242468	1067.375529	-412.289800	421.316378	1034.064196	-22.003043	503.869727	989.727068	-35.154995	542.278807	911.484794	-35.968202	522.529028	1013.677011	-57.264068	588.877709	827.723642	-65.193754	567.705804	809.148249	-180.334681	501.128957	739.242570	-38.090273	448.875932	671.137171	-55.404439	369.473787	634.270894	-52.487513	464.216531	655.665980	-89.460424	295.042061	582.378537	-55.602421	221.331006	586.386768	-100.630544	441.359558	420.024041	-110.515540	352.874077	457.053299	-36.679034	298.091475	939.714972	-428.779666	329.128278	858.410174	-431.956338	366.155473	861.761141	-428.102539	315.397443	770.198814	-425.144687	301.833599	650.062463	-404.326236	316.851283	628.895079	-288.224642	116.799967	329.126925	-379.352999	60.454475	356.853123	-331.659600	139.756915	176.639080	-407.314390	250.176708	554.303704	-422.549722	228.728621	472.349281	-402.212359	168.019345	409.008160	-399.575628	256.484265	461.662960	-376.572316	196.192293	109.263227	-350.680293	-203.879677	869.565987	-218.750682	-50.370869	81.385987	-419.831271	-50.346907	80.483512	-22.448676	
